<svg xmlns="http://www.w3.org/2000/svg" width="1200" height="630" viewBox="0 0 1200 630">
    <defs>
        <linearGradient id="gradient" x1='10.06%' y1='-7.04%' x2='89.94%' y2='107.04%'>
            <stop offset="0%" stop-color='#3456ff'/>
            <stop offset="100%" stop-color='#ff355d'/>
        </linearGradient>
    </defs>
    <rect width="100%" height="100%" x="0" y="0" fill="url(#gradient)" />

    <svg width="80%" height="30%" x="10%" y="15%" viewBox="-0.65 -50.4 250.06 50.98">
        <path d="M32.62 0L21.1 0L-0.65-50.4L11.95-50.4L30.96-5.76L23.54-5.76L42.84-50.4L54.43-50.4L32.62 0ZM78.12 0.58L78.12 0.58Q71.5 0.58 66.49-2.02Q61.49-4.61 58.75-9.11Q56.02-13.61 56.02-19.37L56.02-19.37Q56.02-25.2 58.72-29.7Q61.42-34.2 66.1-36.76Q70.78-39.31 76.68-39.31L76.68-39.31Q82.37-39.31 86.94-36.9Q91.51-34.49 94.18-29.99Q96.84-25.49 96.84-19.22L96.84-19.22Q96.84-18.58 96.77-17.75Q96.7-16.92 96.62-16.2L96.62-16.2L65.16-16.2L65.16-22.75L90.72-22.75L86.4-20.81Q86.4-23.83 85.18-26.06Q83.95-28.3 81.79-29.56Q79.63-30.82 76.75-30.82L76.75-30.82Q73.87-30.82 71.68-29.56Q69.48-28.3 68.26-26.03Q67.03-23.76 67.03-20.66L67.03-20.66L67.03-18.94Q67.03-15.77 68.44-13.36Q69.84-10.94 72.4-9.68Q74.95-8.42 78.41-8.42L78.41-8.42Q81.5-8.42 83.84-9.36Q86.18-10.3 88.13-12.17L88.13-12.17L94.1-5.69Q91.44-2.66 87.41-1.04Q83.38 0.58 78.12 0.58ZM123.05 0.58L123.05 0.58Q116.78 0.58 111.89-1.98Q106.99-4.54 104.22-9.07Q101.45-13.61 101.45-19.37L101.45-19.37Q101.45-25.2 104.22-29.7Q106.99-34.2 111.89-36.76Q116.78-39.31 123.05-39.31L123.05-39.31Q129.17-39.31 133.7-36.76Q138.24-34.2 140.4-29.45L140.4-29.45L131.69-24.77Q130.18-27.5 127.91-28.8Q125.64-30.1 122.98-30.1L122.98-30.1Q120.1-30.1 117.79-28.8Q115.49-27.5 114.16-25.13Q112.82-22.75 112.82-19.37L112.82-19.37Q112.82-15.98 114.16-13.61Q115.49-11.23 117.79-9.94Q120.1-8.64 122.98-8.64L122.98-8.64Q125.64-8.64 127.91-9.9Q130.18-11.16 131.69-13.97L131.69-13.97L140.4-9.22Q138.24-4.54 133.7-1.98Q129.17 0.58 123.05 0.58ZM162.72 0.58L162.72 0.58Q155.88 0.58 152.06-2.92Q148.25-6.41 148.25-13.32L148.25-13.32L148.25-47.3L159.48-47.3L159.48-13.46Q159.48-11.02 160.78-9.68Q162.07-8.35 164.3-8.35L164.3-8.35Q166.97-8.35 168.84-9.79L168.84-9.79L171.86-1.87Q170.14-0.65 167.72-0.04Q165.31 0.58 162.72 0.58ZM169.13-30.1L142.27-30.1L142.27-38.74L169.13-38.74L169.13-30.1ZM196.63 0.58L196.63 0.58Q190.44 0.58 185.65-2.02Q180.86-4.61 178.09-9.11Q175.32-13.61 175.32-19.37L175.32-19.37Q175.32-25.2 178.09-29.7Q180.86-34.2 185.65-36.76Q190.44-39.31 196.63-39.31L196.63-39.31Q202.75-39.31 207.58-36.76Q212.4-34.2 215.14-29.74Q217.87-25.27 217.87-19.37L217.87-19.37Q217.87-13.61 215.14-9.11Q212.4-4.61 207.58-2.02Q202.75 0.58 196.63 0.58ZM196.63-8.64L196.63-8.64Q199.44-8.64 201.67-9.94Q203.9-11.23 205.2-13.64Q206.5-16.06 206.5-19.37L206.5-19.37Q206.5-22.75 205.2-25.13Q203.9-27.5 201.67-28.8Q199.44-30.1 196.63-30.1L196.63-30.1Q193.82-30.1 191.59-28.8Q189.36-27.5 188.03-25.13Q186.7-22.75 186.7-19.37L186.7-19.37Q186.7-16.06 188.03-13.64Q189.36-11.23 191.59-9.94Q193.82-8.64 196.63-8.64ZM236.59 0L225.36 0L225.36-38.74L236.09-38.74L236.09-27.79L234.58-30.96Q236.3-35.06 240.12-37.19Q243.94-39.31 249.41-39.31L249.41-39.31L249.41-28.94Q248.69-29.02 248.11-29.05Q247.54-29.09 246.89-29.09L246.89-29.09Q242.28-29.09 239.44-26.46Q236.59-23.83 236.59-18.29L236.59-18.29L236.59 0Z" fill="#fff"></path>
    </svg>
    <svg width="80%" height="30%" x="10%" y="55%" viewBox="0.29 -50.4 162.65 50.98">
        <path d="M28.08 0L16.42 0L16.42-40.9L0.29-40.9L0.29-50.4L44.21-50.4L44.21-40.9L28.08-40.9L28.08 0ZM68.9 0.58L68.9 0.58Q62.28 0.58 57.28-2.02Q52.27-4.61 49.54-9.11Q46.8-13.61 46.8-19.37L46.8-19.37Q46.8-25.2 49.5-29.7Q52.2-34.2 56.88-36.76Q61.56-39.31 67.46-39.31L67.46-39.31Q73.15-39.31 77.72-36.9Q82.3-34.49 84.96-29.99Q87.62-25.49 87.62-19.22L87.62-19.22Q87.62-18.58 87.55-17.75Q87.48-16.92 87.41-16.2L87.41-16.2L55.94-16.2L55.94-22.75L81.5-22.75L77.18-20.81Q77.18-23.83 75.96-26.06Q74.74-28.3 72.58-29.56Q70.42-30.82 67.54-30.82L67.54-30.82Q64.66-30.82 62.46-29.56Q60.26-28.3 59.04-26.03Q57.82-23.76 57.82-20.66L57.82-20.66L57.82-18.94Q57.82-15.77 59.22-13.36Q60.62-10.94 63.18-9.68Q65.74-8.42 69.19-8.42L69.19-8.42Q72.29-8.42 74.63-9.36Q76.97-10.3 78.91-12.17L78.91-12.17L84.89-5.69Q82.22-2.66 78.19-1.04Q74.16 0.58 68.9 0.58ZM102.46 0L90.22 0L107.57-22.75L107.35-16.56L90.72-38.74L103.32-38.74L113.83-24.26L109.08-24.12L119.95-38.74L131.9-38.74L115.2-16.78L115.2-22.82L132.48 0L119.74 0L108.72-15.41L113.4-14.76L102.46 0ZM153.79 0.58L153.79 0.58Q146.95 0.58 143.14-2.92Q139.32-6.41 139.32-13.32L139.32-13.32L139.32-47.3L150.55-47.3L150.55-13.46Q150.55-11.02 151.85-9.68Q153.14-8.35 155.38-8.35L155.38-8.35Q158.04-8.35 159.91-9.79L159.91-9.79L162.94-1.87Q161.21-0.65 158.8-0.04Q156.38 0.58 153.79 0.58ZM160.2-30.1L133.34-30.1L133.34-38.74L160.2-38.74L160.2-30.1Z" fill="#fff"></path>
    </svg>
</svg>
